<svg xmlns="http://www.w3.org/2000/svg" width="17.999" height="17.985" viewBox="0 0 17.999 17.985">
  <g id="Group_854" data-name="Group 854" transform="translate(5444.855 -4046.124)">
    <path id="Path_20744" data-name="Path 20744" d="M296.353,87.762a8.985,8.985,0,0,0-6.354-2.6h-.031v8.954H290l6.354-6.353Z" transform="translate(-5725.87 3960.962)" fill="#fcbd24"/>
    <path id="Path_20745" data-name="Path 20745" d="M282.554,101.531H273.6v.031a8.984,8.984,0,0,0,2.6,6.353l6.354-6.353Z" transform="translate(-5718.455 3953.547)" fill="#4949e7"/>
    <path id="Path_20746" data-name="Path 20746" d="M284.707,110.587v-9l-6.354,6.354A8.965,8.965,0,0,0,284.707,110.587Z" transform="translate(-5720.608 3953.521)" fill="#1273eb"/>
    <path id="Path_20748" data-name="Path 20748" d="M273.6,96.282h8.954v-.031l-6.308-6.307a8.9,8.9,0,0,0-2.646,6.338Z" transform="translate(-5718.455 3958.796)" fill="#fb5252"/>
    <path id="Path_20749" data-name="Path 20749" d="M278.438,87.778l6.307,6.307V85.162A8.89,8.89,0,0,0,278.438,87.778Z" transform="translate(-5720.646 3960.962)" fill="#f69110"/>
    <path id="Path_20750" data-name="Path 20750" d="M296.379,89.916l-6.354,6.353h9a8.973,8.973,0,0,0-2.646-6.353Z" transform="translate(-5725.896 3958.808)" fill="#8df690"/>
    <path id="Path_20751" data-name="Path 20751" d="M289.969,101.562v9H290a8.944,8.944,0,0,0,6.384-2.662L290,101.531Z" transform="translate(-5725.87 3953.547)" fill="#2c8cf4"/>
    <path id="Path_20752" data-name="Path 20752" d="M299.025,101.531h-9l6.384,6.384a8.98,8.98,0,0,0,2.63-6.353A.049.049,0,0,1,299.025,101.531Z" transform="translate(-5725.896 3953.547)" fill="#4ad295"/>
  </g>
</svg>
