<svg xmlns="http://www.w3.org/2000/svg" width="28.74" height="27" viewBox="0 0 28.74 27">
  <g id="box_1_" data-name="box (1)" transform="translate(0 -15.499)">
    <g id="Group_2208" data-name="Group 2208" transform="translate(0 15.499)">
      <path id="Path_18" data-name="Path 18" d="M25.492,24.761l3.1-4.58a.842.842,0,0,0-.432-1.272L18,15.542a.842.842,0,0,0-.965.332l-2.667,4-2.667-4a.842.842,0,0,0-.966-.332L.578,18.91a.842.842,0,0,0-.432,1.272l3.1,4.58-3.1,4.58a.842.842,0,0,0,.432,1.272l2.847.944v6.733a.842.842,0,0,0,.576.8l10.1,3.367a.842.842,0,0,0,.539,0l10.1-3.367a.842.842,0,0,0,.576-.8V31.556l2.847-.944a.842.842,0,0,0,.432-1.272Zm-7.409-7.419,8.494,2.816-2.442,3.6-8.453-2.818ZM2.164,20.158l8.494-2.816,2.4,3.6L4.606,23.761Zm0,9.206,2.442-3.6,8.453,2.818-2.4,3.6ZM13.529,40.489l-8.42-2.807V32.114l5.629,1.866a.842.842,0,0,0,.966-.332l1.825-2.738Zm.842-13.248-7.441-2.48,7.441-2.48,7.441,2.48Zm9.262,10.441-8.42,2.807V30.91l1.825,2.738A.842.842,0,0,0,18,33.98l5.629-1.866Zm-5.55-5.5-2.4-3.6,8.453-2.818,2.442,3.6Z" transform="translate(0 -15.499)" fill="#fff"/>
    </g>
  </g>
</svg>
