<svg xmlns="http://www.w3.org/2000/svg" xmlns:xlink="http://www.w3.org/1999/xlink" width="18.75" height="15" viewBox="0 0 18.75 15">
  <defs>
    <clipPath id="clip-path">
      <rect width="18.75" height="15" fill="none"/>
    </clipPath>
  </defs>
  <g id="Repeat_Grid_1" data-name="Repeat Grid 1" clip-path="url(#clip-path)">
    <g transform="translate(-149 -301)">
      <path id="Path_10" data-name="Path 10" d="M16.7,162.45a2.8,2.8,0,0,0-5.28,0H11.25V158.7h5.625v3.75Zm-2.64,1.875a.937.937,0,1,1,.937-.937A.94.94,0,0,1,14.062,164.325Zm-9.375,0a.937.937,0,1,1,.937-.937A.94.94,0,0,1,4.687,164.325Zm-2.812-11.25h7.5v9.375H7.327a2.8,2.8,0,0,0-5.28,0H1.875Zm12.594.937,1.687,2.813H11.25v-2.812Zm4.148,3.267L15.8,152.592a.941.941,0,0,0-.8-.455H11.25a.938.938,0,0,0-.937-.937H.937a.938.938,0,0,0-.937.938v11.25a.938.938,0,0,0,.937.937H2.048a2.8,2.8,0,0,0,5.279,0h4.1a2.795,2.795,0,0,0,5.278,0h1.11a.938.938,0,0,0,.937-.937v-5.625A.952.952,0,0,0,18.617,157.28Z" transform="translate(149 149.8)" fill="#596460" fill-rule="evenodd"/>
    </g>
  </g>
</svg>
