<svg xmlns="http://www.w3.org/2000/svg" width="8.378" height="8.378" viewBox="0 0 8.378 8.378">
  <g id="icons" transform="translate(-2 -2)">
    <g id="exit2" transform="translate(2 2)">
      <path id="Path_20814" data-name="Path 20814" d="M10.838,5.351a.84.84,0,0,0,.838-.838V2.838a.838.838,0,0,0-1.676,0V4.513A.84.84,0,0,0,10.838,5.351Z" transform="translate(-6.649 -2)" fill="#ea7410"/>
      <path id="Path_20815" data-name="Path 20815" d="M9.163,4.668h0A.572.572,0,0,0,8.7,4.5a.644.644,0,0,0-.628.628.878.878,0,0,0,.168.461h0a2.847,2.847,0,0,1,.838,2.053,2.932,2.932,0,0,1-5.865,0,2.813,2.813,0,0,1,.88-2.053h0A.673.673,0,0,0,4.3,5.128.644.644,0,0,0,3.676,4.5a.878.878,0,0,0-.461.168h0a4.189,4.189,0,1,0,5.948,0Z" transform="translate(-2 -3.453)" fill="#ea7410"/>
    </g>
  </g>
</svg>
