<svg xmlns="http://www.w3.org/2000/svg" width="9.34" height="10" viewBox="0 0 9.34 10">
  <g id="icons" transform="translate(-0.792)">
    <path id="settings" d="M9.712,6l-.5-.292a.858.858,0,0,1,0-1.458l.5-.292A.792.792,0,0,0,10,2.833l-.417-.708a.792.792,0,0,0-1.125-.292l-.5.292a.831.831,0,0,1-1.25-.708V.833A.836.836,0,0,0,5.879,0H5.045a.836.836,0,0,0-.833.833v.542a.831.831,0,0,1-1.25.708l-.5-.25a.808.808,0,0,0-1.125.292L.92,2.833A.909.909,0,0,0,1.212,4l.5.292a.821.821,0,0,1,0,1.417L1.212,6A.792.792,0,0,0,.92,7.125l.417.708a.792.792,0,0,0,1.125.292l.5-.25a.831.831,0,0,1,1.25.708v.583A.836.836,0,0,0,5.045,10h.833a.836.836,0,0,0,.833-.833V8.625a.831.831,0,0,1,1.25-.708l.5.292a.808.808,0,0,0,1.125-.292L10,7.208A.951.951,0,0,0,9.712,6Zm-4.25.667A1.667,1.667,0,1,1,7.129,5,1.672,1.672,0,0,1,5.462,6.667Z"/>
  </g>
</svg>
