<svg xmlns="http://www.w3.org/2000/svg" width="60" height="50" viewBox="0 0 60 50">
  <path id="_3338940_cart_basket_ecommerce_sale_shopping_icon" data-name="3338940_cart_basket_ecommerce_sale_shopping_icon" d="M11.68,13l-.833-5H7.857a4,4,0,1,0,0,2H9.152l.5,3H9.614l5.171,26.016a5.137,5.137,0,0,0-4.76,4.474A5.012,5.012,0,0,0,15,49h2a6,6,0,0,0,12,0H40a6,6,0,0,0,12,0h4a1,1,0,0,0,0-2H51.65a5.99,5.99,0,0,0-11.3,0H28.65a5.99,5.99,0,0,0-11.3,0H15a3.01,3.01,0,0,1-2.224-.993,2.968,2.968,0,0,1-.761-2.316A3.134,3.134,0,0,1,15.188,41H55.012A4.994,4.994,0,0,0,60,36.013V13ZM4,11A2,2,0,1,1,6,9,2,2,0,0,1,4,11ZM46,45a4,4,0,1,1-4,4A4,4,0,0,1,46,45ZM23,45a4,4,0,1,1-4,4A4,4,0,0,1,23,45Zm35-8.987A2.99,2.99,0,0,1,55.013,39H16.821l-4.77-24H58Z" transform="translate(0 -5)" fill="#fff"/>
</svg>
