<svg id="search_1_" data-name="search (1)" xmlns="http://www.w3.org/2000/svg" width="26.873" height="26.873" viewBox="0 0 26.873 26.873">
  <path id="Path_19" data-name="Path 19" d="M25.108,23.525l-2.844-2.844a5.615,5.615,0,1,0-1.583,1.583l2.844,2.844a1.12,1.12,0,0,0,1.583-1.583ZM17.6,20.958A3.359,3.359,0,1,1,20.958,17.6,3.363,3.363,0,0,1,17.6,20.958Z" transform="translate(1.436 1.436)" fill="#fff"/>
  <path id="Path_20" data-name="Path 20" d="M1.12,25.077a1.119,1.119,0,0,0,1.12-1.12V16.12A1.12,1.12,0,0,0,0,16.12v7.838A1.119,1.119,0,0,0,1.12,25.077Z" transform="translate(0 1.796)" fill="#fff"/>
  <path id="Path_21" data-name="Path 21" d="M8.239,24.436V12.12A1.12,1.12,0,0,0,6,12.12V24.436a1.12,1.12,0,0,0,2.239,0Z" transform="translate(0.718 1.317)" fill="#fff"/>
  <path id="Path_22" data-name="Path 22" d="M14.239,6.12A1.12,1.12,0,1,0,12,6.12v6.841a7.585,7.585,0,0,1,2.239-1.6Z" transform="translate(1.436 0.599)" fill="#fff"/>
  <path id="Path_23" data-name="Path 23" d="M19.12,0A1.123,1.123,0,0,0,18,1.12V11.287a7.216,7.216,0,0,1,2.239.672V1.12A1.123,1.123,0,0,0,19.12,0Z" transform="translate(2.155)" fill="#fff"/>
</svg>
