<svg xmlns="http://www.w3.org/2000/svg" width="11.6" height="14.492" viewBox="0 0 11.6 14.492">
  <g id="shopping-bag" transform="translate(-48.8)">
    <path id="Path_3" data-name="Path 3" d="M60.4,12.528l-.83-9.345a.4.4,0,0,0-.4-.365H57.463a2.863,2.863,0,0,0-5.726,0H50.03a.4.4,0,0,0-.4.365l-.83,9.345c0,.012,0,.024,0,.036a2.065,2.065,0,0,0,2.175,1.929h7.249A2.065,2.065,0,0,0,60.4,12.563.144.144,0,0,0,60.4,12.528ZM54.6.8a2.065,2.065,0,0,1,2.063,2.018H52.537A2.065,2.065,0,0,1,54.6.8Zm3.625,12.892H50.975A1.277,1.277,0,0,1,49.6,12.581l.794-8.959h1.34V4.837a.4.4,0,1,0,.8,0V3.622h4.128V4.837a.4.4,0,1,0,.8,0V3.622H58.8l.8,8.959A1.279,1.279,0,0,1,58.225,13.692Z" fill="#333"/>
  </g>
</svg>
