<svg xmlns="http://www.w3.org/2000/svg" width="23.686" height="29.873" viewBox="0 0 23.686 29.873">
  <g id="shopping-bag_1_" data-name="shopping-bag (1)" transform="translate(-53.02)">
    <g id="Group_2210" data-name="Group 2210" transform="translate(53.02)">
      <g id="Group_2209" data-name="Group 2209">
        <path id="Path_24" data-name="Path 24" d="M76.692,24.635,75.358,7.824a2.1,2.1,0,0,0-2.085-1.931H70.638V5.774a5.774,5.774,0,0,0-11.549,0v.118H56.454a2.1,2.1,0,0,0-2.085,1.929L53.034,24.637a4.864,4.864,0,0,0,4.85,5.236H71.842a4.864,4.864,0,0,0,4.85-5.238ZM60.839,5.774a4.025,4.025,0,0,1,8.049,0v.118H60.839ZM74.127,27.125a3.082,3.082,0,0,1-2.285,1H57.884a3.114,3.114,0,0,1-3.105-3.35L56.113,7.958a.343.343,0,0,1,.341-.315h2.635V9.8a.875.875,0,0,0,1.75,0V7.643h8.049V9.8a.875.875,0,0,0,1.75,0V7.643h2.635a.344.344,0,0,1,.341.318l1.334,16.81A3.082,3.082,0,0,1,74.127,27.125Z" transform="translate(-53.02)" fill="#fff"/>
      </g>
    </g>
    <g id="Group_2212" data-name="Group 2212" transform="translate(60.665 14.58)">
      <g id="Group_2211" data-name="Group 2211">
        <path id="Path_25" data-name="Path 25" d="M192.192,250.149a.875.875,0,0,0-1.237,0l-3.907,3.907-1.5-1.5a.875.875,0,0,0-1.237,1.237l2.121,2.121a.875.875,0,0,0,1.237,0l4.525-4.525A.875.875,0,0,0,192.192,250.149Z" transform="translate(-184.052 -249.893)" fill="#fff"/>
      </g>
    </g>
  </g>
</svg>
