<svg xmlns="http://www.w3.org/2000/svg" width="16" height="16" viewBox="0 0 16 16">
  <path id="Path_11" data-name="Path 11" d="M47.6,106H36.4a.8.8,0,0,1-.8-.8V97.554A3.185,3.185,0,0,1,34,94.8V94a.8.8,0,0,1,.08-.336l1.6-3.222A.8.8,0,0,1,36.4,90H47.6a.8.8,0,0,1,.716.442s1.6,3.214,1.6,3.222A.8.8,0,0,1,50,94v.8a3.185,3.185,0,0,1-1.6,2.754V105.2a.8.8,0,0,1-.8.8Zm-.8-9.6a1.6,1.6,0,0,0,1.6-1.6H45.2a1.6,1.6,0,0,0,1.6,1.6Zm0,8V98a3.191,3.191,0,0,1-2.4-1.086,3.195,3.195,0,0,1-4.8,0A3.191,3.191,0,0,1,37.2,98v6.4h1.6v-4a.8.8,0,0,1,.8-.8h4.8a.8.8,0,0,1,.8.8v4ZM35.6,94.8a1.6,1.6,0,1,0,3.2,0Zm8,0H40.4a1.6,1.6,0,1,0,3.2,0Zm-6.706-3.2-.8,1.6H47.906l-.8-1.6ZM40.4,104.4h3.2v-3.2H40.4Z" transform="translate(-34 -90)" fill="#596460"/>
</svg>
