<?xml version="1.0" encoding="utf-8"?>
<!-- Generator: Adobe Illustrator 24.1.2, SVG Export Plug-In . SVG Version: 6.00 Build 0)  -->
<svg version="1.1" id="Layer_1" xmlns="http://www.w3.org/2000/svg" xmlns:xlink="http://www.w3.org/1999/xlink" x="0px" y="0px"
	 viewBox="0 0 512 512" style="enable-background:new 0 0 512 512;" xml:space="preserve">
<style type="text/css">
	.st0{fill:#FEFEFE;}
	.st1{fill:#FFF4F4;}
</style>
<g>
	<g>
		<path class="st0" d="M256,0c-84.8,0-153.6,86-153.6,192S171.2,384,256,384s153.6-86,153.6-192S340.8,0,256,0z M256,358.4
			c-70.6,0-128-74.6-128-166.4S185.4,25.6,256,25.6S384,100.3,384,192S326.6,358.4,256,358.4z"/>
	</g>
</g>
<g>
	<g>
		<path class="st1" d="M367.8,361.8c-6.9,6.7-14.2,12.7-21.8,18.1c24.4,11.3,45.8,20.8,64.1,28.7c67.8,29.6,76.4,35.4,76.4,52.2
			c0,11.6-11.4,25.6-25.6,25.6H51.2c-14.2,0-25.6-14-25.6-25.6c0-16.8,8.6-22.6,76.3-52.2c18.3-8,39.7-17.4,64.1-28.7
			c-7.6-5.4-14.9-11.4-21.8-18.1C37.6,410.5,0,417.1,0,460.8C0,486.4,22.9,512,51.2,512h409.6c28.3,0,51.2-25.6,51.2-51.2
			C512,417.1,474.4,410.5,367.8,361.8z"/>
	</g>
</g>
</svg>
