<svg xmlns="http://www.w3.org/2000/svg" width="7.75" height="10.501" viewBox="0 0 7.75 10.501">
  <g id="lock" transform="translate(0 -0.242)">
    <g id="Group_2384" data-name="Group 2384" transform="translate(0 0.242)">
      <path id="Path_20812" data-name="Path 20812" d="M7.348,4.621H6.694V3.063a2.819,2.819,0,1,0-5.637,0V4.621H.41a.406.406,0,0,0-.41.4V9.729a1.018,1.018,0,0,0,1.018,1.014H6.739A1.012,1.012,0,0,0,7.75,9.729V5.023A.4.4,0,0,0,7.348,4.621ZM1.867,3.065a2.008,2.008,0,1,1,4.016,0V4.621H1.867ZM6.939,9.729a.2.2,0,0,1-.2.2H1.018a.207.207,0,0,1-.208-.2v-4.3H6.939Z" transform="translate(0 -0.242)" fill="#878787"/>
      <path id="Path_20813" data-name="Path 20813" d="M565.405,1041.987a.405.405,0,0,0,.405-.406v-1.461a.405.405,0,1,0-.811,0v1.461A.405.405,0,0,0,565.405,1041.987Z" transform="translate(-561.53 -1033.332)" fill="#878787"/>
    </g>
  </g>
</svg>
