<svg xmlns="http://www.w3.org/2000/svg" width="20.5" height="18.441" viewBox="0 0 20.5 18.441">
  <g id="Layer_61" data-name="Layer 61" transform="translate(-1 -3)">
    <path id="Path_20602" data-name="Path 20602" d="M7.147,14.611a.683.683,0,0,1-.683-.546l-1.6-8.052A2.049,2.049,0,0,0,2.858,4.366H1.683A.683.683,0,1,1,1.683,3H2.858A3.415,3.415,0,0,1,6.2,5.733L7.83,13.791a.683.683,0,0,1-.546.82Z" fill="#464646"/>
    <path id="Path_20603" data-name="Path 20603" d="M9.106,20.66H7.836a2.828,2.828,0,0,1-.26-5.641L20.15,13.878l1.1-5.512H7.057A.683.683,0,0,1,7.057,7H22.083a.708.708,0,0,1,.683.82L21.4,14.649a.683.683,0,0,1-.608.546L7.7,16.384a1.456,1.456,0,0,0,.137,2.91h1.27a.683.683,0,0,1,0,1.366Z" transform="translate(-1.276 -1.268)" fill="#464646"/>
    <path id="Path_20604" data-name="Path 20604" d="M24.732,27.464a2.732,2.732,0,1,1,2.732-2.732A2.732,2.732,0,0,1,24.732,27.464Zm0-4.1A1.366,1.366,0,1,0,26.1,24.732,1.366,1.366,0,0,0,24.732,23.366Z" transform="translate(-6.657 -6.023)" fill="#464646"/>
    <path id="Path_20605" data-name="Path 20605" d="M12.732,27.464a2.732,2.732,0,1,1,2.732-2.732A2.732,2.732,0,0,1,12.732,27.464Zm0-4.1A1.366,1.366,0,1,0,14.1,24.732,1.366,1.366,0,0,0,12.732,23.366Z" transform="translate(-2.853 -6.023)" fill="#464646"/>
    <path id="Path_20606" data-name="Path 20606" d="M20.781,26.366h-4.1a.683.683,0,1,1,0-1.366h4.1a.683.683,0,1,1,0,1.366Z" transform="translate(-4.755 -6.974)" fill="#464646"/>
  </g>
</svg>
