<?xml version="1.0" encoding="utf-8"?>
<!-- Generator: Adobe Illustrator 24.1.2, SVG Export Plug-In . SVG Version: 6.00 Build 0)  -->
<svg version="1.1" id="Layer_1" xmlns="http://www.w3.org/2000/svg" xmlns:xlink="http://www.w3.org/1999/xlink" x="0px" y="0px"
	 viewBox="0 0 60 50" style="enable-background:new 0 0 60 50;" xml:space="preserve">
<path id="_3338940_cart_basket_ecommerce_sale_shopping_icon" d="M11.7,8l-0.8-5h-3C6.6-2-1.3,0,0.1,5C1,8.9,7,8.9,7.9,5h1.3l0.5,3
	h0l5.2,26C7.1,35,9.6,45.6,17,44c-0.1,7.8,12.1,7.8,12,0h11c-0.1,7.8,12.1,7.8,12,0h4c1.3,0,1.3-2,0-2c0,0-4.3,0-4.3,0
	c-1.7-5.3-9.6-5.2-11.3,0H28.6c-1.7-5.3-9.6-5.2-11.3,0c-2.3,0.3-5.7-0.3-5.3-3.3c0.2-1.6,1.6-2.7,3.2-2.7H55c2.8,0,5-2.2,5-5
	c0,0,0-23,0-23H11.7z M4,6C1.4,6,1.4,2,4,2C6.6,2,6.6,6,4,6z M46,40c5.2-0.1,5.2,8.1,0,8C40.8,48.1,40.8,39.9,46,40z M23,40
	c5.2-0.1,5.2,8.1,0,8C17.8,48.1,17.8,39.9,23,40z M58,31c0,1.6-1.3,3-3,3H16.8l-4.8-24H58V31z"/>
</svg>
