<svg xmlns="http://www.w3.org/2000/svg" width="18.898" height="17" viewBox="0 0 18.898 17">
  <g id="Layer_61" data-name="Layer 61" transform="translate(-1 -3)">
    <path id="Path_20807" data-name="Path 20807" d="M6.667,13.7a.63.63,0,0,1-.63-.5L4.564,5.777A1.889,1.889,0,0,0,2.713,4.259H1.63A.63.63,0,0,1,1.63,3H2.713A3.148,3.148,0,0,1,5.8,5.519l1.5,7.429a.63.63,0,0,1-.5.756Z" fill="#333"/>
    <path id="Path_20808" data-name="Path 20808" d="M8.787,19.593H7.616a2.607,2.607,0,0,1-.239-5.2L18.968,13.34l1.014-5.081H6.9A.63.63,0,1,1,6.9,7H20.75a.653.653,0,0,1,.63.756l-1.259,6.3a.63.63,0,0,1-.56.5l-12.07,1.1a1.343,1.343,0,0,0,.126,2.682H8.787a.63.63,0,0,1,0,1.259Z" transform="translate(-1.491 -1.481)" fill="#333"/>
    <path id="Path_20809" data-name="Path 20809" d="M24.519,27.037a2.519,2.519,0,1,1,2.519-2.519A2.519,2.519,0,0,1,24.519,27.037Zm0-3.778a1.259,1.259,0,1,0,1.259,1.259A1.259,1.259,0,0,0,24.519,23.259Z" transform="translate(-7.778 -7.037)" fill="#333"/>
    <path id="Path_20810" data-name="Path 20810" d="M12.519,27.037a2.519,2.519,0,1,1,2.519-2.519A2.519,2.519,0,0,1,12.519,27.037Zm0-3.778a1.259,1.259,0,1,0,1.259,1.259A1.259,1.259,0,0,0,12.519,23.259Z" transform="translate(-3.333 -7.037)" fill="#333"/>
    <path id="Path_20811" data-name="Path 20811" d="M20.407,26.259H16.63a.63.63,0,1,1,0-1.259h3.778a.63.63,0,1,1,0,1.259Z" transform="translate(-5.556 -8.148)" fill="#333"/>
  </g>
</svg>
