<svg xmlns="http://www.w3.org/2000/svg" width="26.435" height="29.451" viewBox="0 0 26.435 29.451">
  <g id="approve-invoice" transform="translate(-25.17)">
    <path id="Path_12" data-name="Path 12" d="M49.82,0h-17.2A1.788,1.788,0,0,0,30.83,1.786v4a7.8,7.8,0,0,0,0,15.009v6.875a1.788,1.788,0,0,0,1.786,1.786h14.06a.629.629,0,0,0,.445-.184l4.3-4.3a.629.629,0,0,0,.184-.445V1.786A1.788,1.788,0,0,0,49.82,0Zm-17.2,1.258h17.2a.528.528,0,0,1,.528.528v1.9H32.087v-1.9A.528.528,0,0,1,32.615,1.258ZM26.428,13.286a6.546,6.546,0,1,1,6.546,6.546A6.553,6.553,0,0,1,26.428,13.286Zm5.66,14.379V21.039a7.792,7.792,0,0,0,6.768-2.63h3.853a.629.629,0,1,0,0-1.258H39.751a7.747,7.747,0,0,0,1-3.189h1.961a.629.629,0,1,0,0-1.258H40.756A7.747,7.747,0,0,0,39.8,9.516h2.9a.629.629,0,1,0,0-1.258H38.937a7.791,7.791,0,0,0-6.85-2.725V4.942h18.26v18.95H47.831a1.788,1.788,0,0,0-1.786,1.786v2.516H32.615A.528.528,0,0,1,32.087,27.665ZM47.3,27.3V25.677a.528.528,0,0,1,.528-.528h1.627Z" transform="translate(0 0)" fill="#fff"/>
    <path id="Path_13" data-name="Path 13" d="M349.375,139.127h2.089a.629.629,0,0,0,0-1.258h-2.089a.629.629,0,0,0,0,1.258Z" transform="translate(-304.195 -129.611)" fill="#fff"/>
    <path id="Path_14" data-name="Path 14" d="M349.375,213.368h2.089a.629.629,0,0,0,0-1.258h-2.089a.629.629,0,0,0,0,1.258Z" transform="translate(-304.195 -199.405)" fill="#fff"/>
    <path id="Path_15" data-name="Path 15" d="M349.375,287.61h2.089a.629.629,0,0,0,0-1.258h-2.089a.629.629,0,0,0,0,1.258Z" transform="translate(-304.195 -269.201)" fill="#fff"/>
    <path id="Path_16" data-name="Path 16" d="M291.9,361.851a.629.629,0,1,0,0-1.258H286.02a.629.629,0,1,0,0,1.258Z" transform="translate(-244.635 -338.995)" fill="#fff"/>
    <path id="Path_17" data-name="Path 17" d="M78.684,151.774l-.767-.767a1.094,1.094,0,0,0-1.547,0l-4.024,4.024-1.112-1.112a1.094,1.094,0,0,0-1.547,0l-.767.767a1.1,1.1,0,0,0,0,1.547l2.653,2.653a1.087,1.087,0,0,0,.774.321h0a1.087,1.087,0,0,0,.773-.32l5.565-5.565A1.1,1.1,0,0,0,78.684,151.774Zm-6.339,6.107-2.422-2.422.536-.536,1.441,1.441a.629.629,0,0,0,.889,0l4.353-4.353.536.536Z" transform="translate(-40.827 -141.66)" fill="#fff"/>
  </g>
</svg>
