<svg xmlns="http://www.w3.org/2000/svg" width="135" height="135" viewBox="0 0 135 135">
  <g id="Group_1" data-name="Group 1" transform="translate(-170 -0.1)">
    <path id="Path_1" data-name="Path 1" d="M237.5.1A67.5,67.5,0,1,0,305,67.6,67.473,67.473,0,0,0,237.5.1Zm42.2,85a29.764,29.764,0,0,1-2,10.3,19.89,19.89,0,0,1-4.9,7.5,20.693,20.693,0,0,1-7.5,4.9,29.764,29.764,0,0,1-10.3,2c-4.5.2-6,.3-17.5.3s-13,0-17.5-.3a29.764,29.764,0,0,1-10.3-2,19.89,19.89,0,0,1-7.5-4.9,20.693,20.693,0,0,1-4.9-7.5,29.764,29.764,0,0,1-2-10.3c-.2-4.5-.3-6-.3-17.5s0-13,.3-17.5a29.764,29.764,0,0,1,2-10.3,19.89,19.89,0,0,1,4.9-7.5,20.693,20.693,0,0,1,7.5-4.9,29.764,29.764,0,0,1,10.3-2c4.5-.2,6-.3,17.5-.3s13,0,17.5.3a29.764,29.764,0,0,1,10.3,2,19.89,19.89,0,0,1,7.5,4.9,20.693,20.693,0,0,1,4.9,7.5,29.764,29.764,0,0,1,2,10.3c.2,4.5.3,6,.3,17.5C280,79.2,280,80.6,279.7,85.1Z" fill="#010201"/>
    <circle id="Ellipse_1" data-name="Ellipse 1" cx="14.2" cy="14.2" r="14.2" transform="translate(223.3 53.4)" fill="#010201"/>
    <path id="Path_2" data-name="Path 2" d="M270.6,42.5a14.246,14.246,0,0,0-8.1-8.1,22.837,22.837,0,0,0-7.9-1.5c-4.5-.2-5.8-.2-17.2-.2-11.3,0-12.7,0-17.2.2a23.419,23.419,0,0,0-7.9,1.5,14.246,14.246,0,0,0-8.1,8.1,22.837,22.837,0,0,0-1.5,7.9c-.2,4.5-.2,5.8-.2,17.2,0,11.3,0,12.7.2,17.2a23.418,23.418,0,0,0,1.5,7.9,14.246,14.246,0,0,0,8.1,8.1,22.837,22.837,0,0,0,7.9,1.5c4.5.2,5.8.2,17.2.2s12.7,0,17.2-.2a23.418,23.418,0,0,0,7.9-1.5,14.246,14.246,0,0,0,8.1-8.1,22.837,22.837,0,0,0,1.5-7.9c.2-4.5.2-5.8.2-17.2,0-11.3,0-12.7-.2-17.2A23.419,23.419,0,0,0,270.6,42.5ZM237.5,89.4a21.8,21.8,0,1,1,21.8-21.8A21.787,21.787,0,0,1,237.5,89.4ZM260.2,50a5.1,5.1,0,1,1,5.1-5.1A5.121,5.121,0,0,1,260.2,50Z" fill="#010201"/>
  </g>
</svg>
