<svg xmlns="http://www.w3.org/2000/svg" width="135" height="135" viewBox="0 0 135 135">
  <path id="Path_7" data-name="Path 7" d="M896.5.1A67.5,67.5,0,1,0,964,67.6,67.473,67.473,0,0,0,896.5.1ZM874.2,104.5c-4.8-.1-9.6,0-14.4,0-.8,0-1-.2-1-1V52.2c0-.7.2-1,.9-1h14.6c.9,0,1.1.4,1.1,1.2v51C875.4,104.2,875.1,104.5,874.2,104.5Zm-7.1-60.6a9.55,9.55,0,1,1,9.6-9.6A9.647,9.647,0,0,1,867.1,43.9Zm70.4,59.5c0,.9-.2,1.1-1.1,1.1H922c-.8,0-1-.3-1-1.1V76.8a21.33,21.33,0,0,0-.8-6.6c-1.1-4-4-6-8.2-5.8-5.7.3-8.7,3.1-9.4,8.9a29.661,29.661,0,0,0-.3,4.2v25.9c0,.9-.2,1.1-1.1,1.1H886.7c-.8,0-1-.2-1-1V52.2c0-.8.3-1,1.1-1h13.8c.8,0,1.1.3,1,1.1v6.1c1.1-1.2,2-2.5,3.2-3.6a17.033,17.033,0,0,1,12.5-4.9,25.322,25.322,0,0,1,7.8,1c5.9,1.7,9.3,5.7,10.9,11.5a52.688,52.688,0,0,1,1.5,13.1Z" transform="translate(-829 -0.1)" fill="#010201"/>
</svg>
