<svg xmlns="http://www.w3.org/2000/svg" width="135" height="135.1" viewBox="0 0 135 135.1">
  <path id="Path_4" data-name="Path 4" d="M733.3,0a67.585,67.585,0,0,0-24.7,130.5c-.6-5.3-1.1-13.6.2-19.4,1.2-5.3,7.9-33.6,7.9-33.6a24.848,24.848,0,0,1-2-10c0-9.4,5.4-16.4,12.2-16.4,5.8,0,8.6,4.3,8.6,9.5,0,5.8-3.7,14.5-5.6,22.5-1.6,6.7,3.4,12.2,10,12.2,12,0,21.2-12.7,21.2-30.9,0-16.2-11.6-27.5-28.2-27.5-19.2,0-30.5,14.4-30.5,29.3,0,5.8,2.2,12,5,15.4a1.777,1.777,0,0,1,.4,1.9c-.5,2.1-1.7,6.7-1.9,7.7-.3,1.2-1,1.5-2.3.9C695.2,88.2,690,76,690,66c0-21.3,15.5-40.9,44.6-40.9,23.4,0,41.6,16.7,41.6,39,0,23.3-14.7,42-35,42-6.8,0-13.3-3.6-15.5-7.8,0,0-3.4,12.9-4.2,16.1-1.5,5.9-5.6,13.2-8.4,17.7a69.114,69.114,0,0,0,20,3A67.55,67.55,0,0,0,733.3,0Z" transform="translate(-665.7)" fill="#010201"/>
</svg>
