<svg xmlns="http://www.w3.org/2000/svg" width="135" height="135" viewBox="0 0 135 135">
  <path id="Path_3" data-name="Path 3" d="M403.2.1a67.5,67.5,0,1,0,67.5,67.5A67.473,67.473,0,0,0,403.2.1Zm37.3,53.1c0,.8.1,1.5.1,2.3,0,23.7-18,51-51,51a50.959,50.959,0,0,1-27.5-8.1,30.245,30.245,0,0,0,4.3.2,36.28,36.28,0,0,0,22.3-7.7A17.776,17.776,0,0,1,372,78.5a18.7,18.7,0,0,0,3.4.3,18.353,18.353,0,0,0,4.7-.6,17.93,17.93,0,0,1-14.4-17.6v-.2a17.2,17.2,0,0,0,8.1,2.2,17.942,17.942,0,0,1-5.6-23.9,50.674,50.674,0,0,0,36.9,18.7,18.406,18.406,0,0,1-.5-4.1,17.9,17.9,0,0,1,31-12.2A35.1,35.1,0,0,0,447,36.7a17.706,17.706,0,0,1-7.9,9.9,35.693,35.693,0,0,0,10.3-2.8A34.621,34.621,0,0,1,440.5,53.2Z" transform="translate(-335.7 -0.1)" fill="#010201" fill-rule="evenodd"/>
</svg>
