<svg xmlns="http://www.w3.org/2000/svg" width="135" height="135" viewBox="0 0 135 135">
  <g id="Group_2" data-name="Group 2" transform="translate(-503 -0.1)">
    <path id="Path_5" data-name="Path 5" d="M561.5,81.1l23.4-13.5L561.5,54.1Z" fill="#010201"/>
    <path id="Path_6" data-name="Path 6" d="M570.5.1A67.5,67.5,0,1,0,638,67.6,67.473,67.473,0,0,0,570.5.1Zm43.1,89.2a11.341,11.341,0,0,1-8,8c-7,1.9-35.2,1.9-35.2,1.9s-28.1,0-35.2-1.9a11.341,11.341,0,0,1-8-8c-1.9-7-1.9-21.7-1.9-21.7s0-14.6,1.9-21.7a11.341,11.341,0,0,1,8-8c7-1.9,35.2-1.9,35.2-1.9s28.1,0,35.2,1.9a11.341,11.341,0,0,1,8,8c1.9,7,1.9,21.7,1.9,21.7S615.5,82.3,613.6,89.3Z" fill="#010201"/>
  </g>
</svg>
