<svg xmlns="http://www.w3.org/2000/svg" width="424.116" height="389.725" viewBox="0 0 424.116 389.725">
  <g id="Group_3582" data-name="Group 3582" transform="translate(-470.942 -137.275)">
    <g id="Group_2415" data-name="Group 2415" transform="translate(37.942 30.275)">
      <g id="Group_2387" data-name="Group 2387" transform="translate(433 107)">
        <rect id="Rectangle_1601" data-name="Rectangle 1601" width="424.116" height="0.212" transform="translate(0 277.75)" fill="#ebebeb"/>
        <rect id="Rectangle_1602" data-name="Rectangle 1602" width="18.389" height="0.212" transform="translate(363.232 291.403)" fill="#ebebeb"/>
        <rect id="Rectangle_1603" data-name="Rectangle 1603" width="28.932" height="0.212" transform="translate(263.425 287.001)" fill="#ebebeb"/>
        <rect id="Rectangle_1604" data-name="Rectangle 1604" width="37.768" height="0.212" transform="translate(336.397 283.526)" fill="#ebebeb"/>
        <rect id="Rectangle_1605" data-name="Rectangle 1605" width="9.447" height="0.212" transform="translate(137.309 287.802)" fill="#ebebeb"/>
        <rect id="Rectangle_1606" data-name="Rectangle 1606" width="32.563" height="0.212" transform="translate(97.194 287.802)" fill="#ebebeb"/>
        <rect id="Rectangle_1607" data-name="Rectangle 1607" width="23.492" height="0.212" transform="translate(56.243 284.221)" fill="#ebebeb"/>
        <path id="Path_20816" data-name="Path 20816" d="M206.841,294.873H43.049a4.848,4.848,0,0,1-4.842-4.842V59.794a4.847,4.847,0,0,1,4.842-4.841H206.841a4.847,4.847,0,0,1,4.841,4.841V290.031A4.847,4.847,0,0,1,206.841,294.873ZM43.049,55.165a4.634,4.634,0,0,0-4.63,4.629V290.031a4.634,4.634,0,0,0,4.63,4.63H206.841a4.634,4.634,0,0,0,4.629-4.63V59.794a4.634,4.634,0,0,0-4.629-4.629Z" transform="translate(-5.799 -54.953)" fill="#ebebeb"/>
        <path id="Path_20817" data-name="Path 20817" d="M423.138,294.873H259.346a4.847,4.847,0,0,1-4.841-4.842V59.794a4.846,4.846,0,0,1,4.841-4.841H423.138a4.847,4.847,0,0,1,4.843,4.841V290.031A4.848,4.848,0,0,1,423.138,294.873ZM259.346,55.165a4.634,4.634,0,0,0-4.629,4.629V290.031a4.634,4.634,0,0,0,4.629,4.63H423.138a4.635,4.635,0,0,0,4.63-4.63V59.794a4.635,4.635,0,0,0-4.63-4.629Z" transform="translate(-38.626 -54.953)" fill="#ebebeb"/>
      </g>
      <g id="Group_2393" data-name="Group 2393" transform="translate(468.258 126.047)">
        <g id="Group_2388" data-name="Group 2388" transform="translate(0 22.42)">
          <path id="Path_20818" data-name="Path 20818" d="M189.588,186.151,189.97,175l-6.844-2.236a66.422,66.422,0,0,0-1.825-11.193l5.8-4.277-3.94-10.47-7.174.578a65.587,65.587,0,0,0-5.972-9.627l3.717-6.2-7.642-8.152-6.413,3.284a69.958,69.958,0,0,0-9.195-6.646l1.039-7.12-10.177-4.619-4.663,5.465a68.828,68.828,0,0,0-11.041-2.587l-1.735-6.979-11.176-.383-2.206,6.844a68.909,68.909,0,0,0-11.193,1.825l-4.307-5.772-10.469,3.911.578,7.176a68.221,68.221,0,0,0-9.627,6l-6.173-3.715-8.182,7.609,3.284,6.443a65.626,65.626,0,0,0-6.616,9.2L50.7,142.29l-4.647,10.175,5.493,4.664a66.544,66.544,0,0,0-2.587,11.042l-7.01,1.761-.382,11.147,6.872,2.238a65.9,65.9,0,0,0,1.825,11.192l-5.8,4.277,3.94,10.471,7.174-.579a65.741,65.741,0,0,0,5.972,9.627l-3.717,6.2,7.642,8.153,6.413-3.285a68.371,68.371,0,0,0,9.195,6.647l-1.069,7.118,10.177,4.619,4.692-5.463a68.885,68.885,0,0,0,11.041,2.586l1.734,6.979,11.175.383,2.208-6.844a68.913,68.913,0,0,0,11.192-1.825l4.278,5.771,10.469-3.911-.549-7.174a69.949,69.949,0,0,0,9.627-6l6.174,3.717,8.181-7.611-3.283-6.443a65.688,65.688,0,0,0,6.616-9.2l7.118,1.069,4.647-10.176-5.494-4.664a65.732,65.732,0,0,0,2.586-11.041Zm-75.32,36.11a44.244,44.244,0,1,1,45.718-42.69A44.233,44.233,0,0,1,114.268,222.261Z" transform="translate(-41.566 -103.84)" fill="#ebebeb"/>
        </g>
        <g id="Group_2389" data-name="Group 2389" transform="translate(297.171 22.304)">
          <path id="Path_20819" data-name="Path 20819" d="M433.513,149.27l2.811-2.624-1.123-2.214a22.87,22.87,0,0,0,2.284-3.175l2.457.372,1.592-3.513-1.891-1.608a22.617,22.617,0,0,0,.891-3.8l2.419-.607.125-3.851-2.365-.763a24.161,24.161,0,0,0-.622-3.862l1.99-1.483-1.355-3.608-2.47.2A23.745,23.745,0,0,0,436.2,115.4l1.279-2.125-2.632-2.819-2.207,1.132a23.742,23.742,0,0,0-3.174-2.285l.357-2.457-3.507-1.6-1.609,1.891a23.514,23.514,0,0,0-3.81-.885l-.6-2.412-3.851-.139-.77,2.372a22.606,22.606,0,0,0-3.856.629l-1.475-2-3.614,1.349.2,2.476a23.039,23.039,0,0,0-3.323,2.062l-2.138-1.28-2.811,2.625,1.13,2.222a22.758,22.758,0,0,0-2.284,3.174l-2.456-.372-1.593,3.514,1.891,1.608a22.694,22.694,0,0,0-.891,3.8l-2.418.606-.125,3.852,2.365.763a23.455,23.455,0,0,0,.621,3.863l-2,1.475,1.355,3.608,2.476-.188a23.676,23.676,0,0,0,2.062,3.323l-1.279,2.125,2.632,2.819L402.351,147a23.7,23.7,0,0,0,3.174,2.284l-.364,2.451,3.507,1.6,1.615-1.883a24.058,24.058,0,0,0,3.811.884l.6,2.412,3.851.139.77-2.372a22.59,22.59,0,0,0,3.856-.629l1.475,2,3.615-1.348-.2-2.477A22.809,22.809,0,0,0,431.381,148Zm-20.032-16.228a5.489,5.489,0,1,1,7.756.265A5.489,5.489,0,0,1,413.481,133.042Z" transform="translate(-391.908 -103.703)" fill="#ebebeb"/>
        </g>
        <path id="Path_20820" data-name="Path 20820" d="M299.47,283.394l-8.772-6.057c0-.007,0-.014-.005-.021a48.163,48.163,0,0,0-3.528-9.137l2.248-8.819L276.69,245.732l-8.956,1.64a48.225,48.225,0,0,0-8.867-4.141.229.229,0,0,1-.022-.008l-5.446-9.169-18.631-.639-6.058,8.772-.035.008a48.224,48.224,0,0,0-9.127,3.524l-8.816-2.247L197.106,256.2l1.636,8.939,0,.008a47.252,47.252,0,0,0-4.144,8.9l-9.168,5.443-.639,18.631,8.78,6.063a46.66,46.66,0,0,0,3.518,9.176l0,0-2.241,8.793,12.723,13.625,8.9-1.629a48.643,48.643,0,0,0,8.945,4.15l.008,0,5.436,9.156,18.631.639,6.054-8.766a48.549,48.549,0,0,0,9.2-3.527l0,0,8.775,2.236,13.626-12.722-1.636-8.94a47.258,47.258,0,0,0,4.144-8.9v0l9.171-5.446Zm-58.063,28.322a20.964,20.964,0,1,1,21.669-20.234A20.97,20.97,0,0,1,241.407,311.716Z" transform="translate(-63.303 -101.085)" fill="#ebebeb"/>
        <path id="Path_20821" data-name="Path 20821" d="M334.1,213.136h-.061l-14.689-.5a1.79,1.79,0,0,1-1.478-.875l-3.955-6.66a40.3,40.3,0,0,1-6.177-2.865l-6.368,1.165a1.779,1.779,0,0,1-1.631-.539L289.71,192.115a1.794,1.794,0,0,1-.427-1.665l1.6-6.285a38.965,38.965,0,0,1-2.425-6.336l-6.388-4.412a1.792,1.792,0,0,1-.773-1.535l.5-14.689a1.788,1.788,0,0,1,.875-1.478l6.672-3.962a39.264,39.264,0,0,1,2.859-6.148l-1.171-6.39a1.793,1.793,0,0,1,.539-1.631l10.743-10.032a1.791,1.791,0,0,1,1.665-.427l6.307,1.607a39.809,39.809,0,0,1,6.318-2.435l4.408-6.383a1.732,1.732,0,0,1,1.534-.772l14.689.5a1.789,1.789,0,0,1,1.478.876l3.963,6.672a39.87,39.87,0,0,1,6.13,2.86l6.408-1.174a1.792,1.792,0,0,1,1.632.539l10.03,10.744a1.793,1.793,0,0,1,.427,1.665l-1.607,6.308a39.771,39.771,0,0,1,2.435,6.316l6.383,4.408a1.792,1.792,0,0,1,.773,1.534l-.5,14.691a1.791,1.791,0,0,1-.876,1.478l-6.675,3.964a39.208,39.208,0,0,1-2.855,6.144l1.17,6.392a1.788,1.788,0,0,1-.539,1.631l-10.742,10.029a1.786,1.786,0,0,1-1.665.427l-6.278-1.6a40.132,40.132,0,0,1-6.352,2.434l-4.4,6.378A1.793,1.793,0,0,1,334.1,213.136Zm-13.648-4.05,12.731.436,4.217-6.106a1.791,1.791,0,0,1,1.009-.712,36.56,36.56,0,0,0,6.916-2.652l.012-.006a1.784,1.784,0,0,1,1.237-.13l5.971,1.521,9.31-8.694-1.114-6.085a1.794,1.794,0,0,1,.227-1.247,35.57,35.57,0,0,0,3.1-6.645,1.8,1.8,0,0,1,.8-.994l6.38-3.79.437-12.732-6.111-4.22a1.785,1.785,0,0,1-.681-.907c-.015-.045-.03-.094-.042-.143a36.112,36.112,0,0,0-2.641-6.832,1.794,1.794,0,0,1-.138-1.254l1.53-6-8.694-9.313-6.1,1.117a1.787,1.787,0,0,1-1.24-.224,36.309,36.309,0,0,0-6.655-3.11,1.984,1.984,0,0,1-.374-.174,1.788,1.788,0,0,1-.6-.612l-3.793-6.386-12.732-.437-4.219,6.111a1.791,1.791,0,0,1-1.054.724,36.3,36.3,0,0,0-6.832,2.64,1.787,1.787,0,0,1-1.253.138l-6-1.529-9.311,8.7,1.114,6.084a1.791,1.791,0,0,1-.16,1.123c-.025.048-.051.1-.081.144a35.563,35.563,0,0,0-3.1,6.666,1.8,1.8,0,0,1-.778.952l-6.385,3.792-.436,12.731,6.116,4.223a1.786,1.786,0,0,1,.711,1.007,35.352,35.352,0,0,0,2.638,6.885,1.755,1.755,0,0,1,.145.385,1.782,1.782,0,0,1,0,.876L293,190.385l8.694,9.309,6.055-1.107a1.8,1.8,0,0,1,1.234.221,36.768,36.768,0,0,0,6.69,3.109,1.787,1.787,0,0,1,1,.791Zm21.022-80.423h0ZM328.315,193c-.314,0-.627-.006-.942-.017a26.753,26.753,0,1,1,.942.017Zm-.032-50.125a23.293,23.293,0,1,0,.807.014C328.82,142.878,328.55,142.873,328.283,142.873Z" transform="translate(-77.95 -83.741)" fill="#ebebeb"/>
        <g id="Group_2390" data-name="Group 2390" transform="translate(282.269 9.598)">
          <path id="Path_20822" data-name="Path 20822" d="M382.058,103.516l-6.085-1.634L374.339,95.8l2.382-2.382,2.514,5.205,5.205,2.514Z" transform="translate(-374.339 -89.436)" fill="#e0e0e0"/>
          <path id="Path_20823" data-name="Path 20823" d="M383.166,98.99a2.839,2.839,0,1,0-4.016-4.015l3.026-4.541,4.06,2.053.89,4.265Z" transform="translate(-375.069 -88.984)" fill="#e0e0e0"/>
          <path id="Path_20824" data-name="Path 20824" d="M376.582,93.183l4.459-4.459,6.084,1.634,1.634,6.085L384.3,100.9l-6.085-1.635Zm8.1,3.646a2.839,2.839,0,1,0-4.016-.008A2.85,2.85,0,0,0,384.678,96.829Z" transform="translate(-374.68 -88.724)" fill="#f0f0f0"/>
        </g>
        <g id="Group_2391" data-name="Group 2391" transform="translate(37.857 178.462)">
          <path id="Path_20825" data-name="Path 20825" d="M89.992,295.738l3.265-.877.877-3.265-1.278-1.278-1.349,2.793-2.793,1.349Z" transform="translate(-86.579 -288.183)" fill="#e0e0e0"/>
          <path id="Path_20826" data-name="Path 20826" d="M89.6,293.309a1.523,1.523,0,1,1,2.155-2.155l-1.624-2.437-2.178,1.1-.478,2.289Z" transform="translate(-86.391 -287.94)" fill="#e0e0e0"/>
          <path id="Path_20827" data-name="Path 20827" d="M92.732,290.194,90.339,287.8l-3.266.876-.876,3.266,2.392,2.393,3.266-.877Zm-4.345,1.956a1.524,1.524,0,1,1,2.155,0A1.53,1.53,0,0,1,88.386,292.15Z" transform="translate(-86.197 -287.801)" fill="#f0f0f0"/>
        </g>
        <g id="Group_2392" data-name="Group 2392" transform="translate(24.653 0)">
          <path id="Path_20828" data-name="Path 20828" d="M76.268,85.108l2.709,2.71a1.82,1.82,0,0,0,2.566,0h0a1.819,1.819,0,0,0,0-2.566l-2.71-2.709a1.818,1.818,0,0,0-2.565,0h0A1.818,1.818,0,0,0,76.268,85.108Z" transform="translate(-71.405 -78.107)" fill="#f0f0f0"/>
          <path id="Path_20829" data-name="Path 20829" d="M73.626,77.66a3.779,3.779,0,1,1-2.507,4.908A3.9,3.9,0,0,1,73.626,77.66Z" transform="translate(-70.672 -77.408)" fill="#e0e0e0"/>
          <rect id="Rectangle_1608" data-name="Rectangle 1608" width="1.162" height="8.569" transform="matrix(-0.338, -0.941, 0.941, -0.338, 0.393, 5.797)" fill="#f0f0f0"/>
        </g>
      </g>
      <ellipse id="_Path_" data-name="&lt;Path&gt;" cx="164.463" cy="9.605" rx="164.463" ry="9.605" transform="translate(480.595 403.849)" fill="#f5f5f5"/>
      <g id="Group_2394" data-name="Group 2394" transform="translate(506.115 132.928)">
        <path id="Path_20830" data-name="Path 20830" d="M86.637,117.964q-1.274-5.6,1.137-9.435t7.985-5.1q5.712-1.3,9.5,1.065t5.044,7.889a14.458,14.458,0,0,1,.145,6.886,9.868,9.868,0,0,1-2.993,4.883,13.213,13.213,0,0,1-6.036,2.874,15,15,0,0,1-6.687.224,9.878,9.878,0,0,1-5-2.968A13.278,13.278,0,0,1,86.637,117.964Zm7.078-1.575q.788,3.466,2.419,4.686a5,5,0,0,0,7.039-1.567q.911-1.767.039-5.607-.735-3.23-2.377-4.425a4.57,4.57,0,0,0-3.874-.686,4.406,4.406,0,0,0-3.09,2.294Q92.919,112.893,93.715,116.388Z" transform="translate(-86.197 -88.169)" fill="#263238"/>
        <path id="Path_20831" data-name="Path 20831" d="M118.547,115.337a8.5,8.5,0,0,1,1.139-6.833,9.8,9.8,0,0,1,6.355-4.03q4.98-1.132,8.18,1.176a9.26,9.26,0,0,1,2.235,12.108A9.94,9.94,0,0,1,130,121.8a10.086,10.086,0,0,1-6.923-.561A8.35,8.35,0,0,1,118.547,115.337Zm6.365-1.462a5.131,5.131,0,0,0,1.642,3.074,3.017,3.017,0,0,0,4.514-1.01,5.3,5.3,0,0,0,.12-3.556,5.016,5.016,0,0,0-1.619-3.006,2.839,2.839,0,0,0-2.44-.553,2.949,2.949,0,0,0-2.051,1.591A5.067,5.067,0,0,0,124.912,113.874Z" transform="translate(-91.067 -88.34)" fill="#263238"/>
        <path id="Path_20832" data-name="Path 20832" d="M147.654,123.91l-5.2-22.882,5.947-1.353.556,2.451a8.129,8.129,0,0,1,1.788-2.606,6.655,6.655,0,0,1,2.908-1.432,6.1,6.1,0,0,1,5.721,1.374,10.805,10.805,0,0,1,3.249,5.877q.942,4.136-.547,6.764a6.647,6.647,0,0,1-4.515,3.317,7.121,7.121,0,0,1-2.791.109,6.518,6.518,0,0,1-2.5-.991l1.8,7.913Zm3.061-16a4.471,4.471,0,0,0,1.49,2.73,2.717,2.717,0,0,0,2.308.477,2.372,2.372,0,0,0,1.65-1.335,5.079,5.079,0,0,0,.045-3.269,4.719,4.719,0,0,0-1.453-2.78,2.446,2.446,0,0,0-2.119-.512,2.629,2.629,0,0,0-1.813,1.413A4.858,4.858,0,0,0,150.715,107.915Z" transform="translate(-94.735 -87.397)" fill="#263238"/>
        <path id="Path_20833" data-name="Path 20833" d="M169.246,107.633l6.171-2.027a3.2,3.2,0,0,0,1.458,1.361,3.343,3.343,0,0,0,1.983.058,3.25,3.25,0,0,0,1.858-1,1.248,1.248,0,0,0,.316-1.137,1.185,1.185,0,0,0-.958-.9,13.442,13.442,0,0,0-2.88-.035,29.252,29.252,0,0,1-4.84-.022,4.973,4.973,0,0,1-2.546-1.168,4.423,4.423,0,0,1-1.489-2.466,4.483,4.483,0,0,1,.31-3.038,5.815,5.815,0,0,1,2.22-2.367,14.292,14.292,0,0,1,4.347-1.6,15.894,15.894,0,0,1,4.481-.542,5.851,5.851,0,0,1,2.675.869,7.531,7.531,0,0,1,2.154,2.219l-5.89,1.964a2.1,2.1,0,0,0-1.046-.993,3.261,3.261,0,0,0-1.925-.089,2.64,2.64,0,0,0-1.482.738,1.17,1.17,0,0,0-.281,1.04,1.012,1.012,0,0,0,.834.777,10.308,10.308,0,0,0,2.843-.056,19.055,19.055,0,0,1,4.94-.073,5.326,5.326,0,0,1,2.78,1.286,4.6,4.6,0,0,1,1.411,2.418,5.257,5.257,0,0,1-.232,2.987,6.023,6.023,0,0,1-2.241,2.781,13.5,13.5,0,0,1-4.9,1.958q-4.542,1.033-6.764.175A5.97,5.97,0,0,1,169.246,107.633Z" transform="translate(-98.64 -86.615)" fill="#263238"/>
        <path id="Path_20834" data-name="Path 20834" d="M193.849,85.559l6.962-.039.031,5.346-1.284,10.748-4.306.024-1.373-10.733Zm.34,17.718,6.5-.036.032,5.746-6.5.036Z" transform="translate(-102.535 -85.52)" fill="#263238"/>
      </g>
      <g id="Group_2395" data-name="Group 2395" transform="translate(493.361 184.828)">
        <path id="Path_20835" data-name="Path 20835" d="M124.278,167.806a.428.428,0,0,1-.154-.029c-3.818-1.478-6.1-2.923-7.288-4.658a4.389,4.389,0,0,1-2.741-.377,5.458,5.458,0,0,1-2.358-2.224,2.169,2.169,0,0,1-2.058.318,5.234,5.234,0,0,1-2.5-2.045,1.937,1.937,0,0,1-1.316.365c-2.522-.205-5.939-5.225-6.184-10.575a.424.424,0,0,1,.847-.038c.232,5.077,3.486,9.611,5.406,9.767a1.074,1.074,0,0,0,.79-.238,10.406,10.406,0,0,1-.867-7.984c.729-2.548,1.373-3.545,2.148-3.361,1.461.364,1.269,5.914.5,9.576a5.2,5.2,0,0,1-.717,1.851,4.591,4.591,0,0,0,2.157,1.872,1.341,1.341,0,0,0,1.42-.293,9.854,9.854,0,0,1,.1-6.734c1.191-3.757,1.67-3.859,1.957-3.919a.561.561,0,0,1,.547.187c.783.885-.153,6.719-1.14,9.605a4.255,4.255,0,0,1-.472.981,4.646,4.646,0,0,0,2.115,2.121,3.707,3.707,0,0,0,1.928.366c-.076-.161-.145-.323-.207-.489-.672-1.821-.344-3.924,1.005-6.428.895-1.661,1.624-2.435,2.3-2.436h0a.941.941,0,0,1,.837.562c.74,1.366.2,5.869-1.258,8.1a3.32,3.32,0,0,1-1.372,1.187c1.137,1.494,3.295,2.811,6.743,4.147a.424.424,0,0,1-.154.819Zm-4.8-13.97s-.48,0-1.55,1.991c-1.227,2.278-1.54,4.152-.957,5.731a4.63,4.63,0,0,0,.255.568,2.508,2.508,0,0,0,1.121-.937c1.188-1.815,1.757-5.546,1.315-7C119.575,153.887,119.483,153.835,119.482,153.835Zm-6.084-3.574a19.163,19.163,0,0,0-1.137,2.994,9.605,9.605,0,0,0-.327,5.554c.028-.071.054-.143.079-.213A28.082,28.082,0,0,0,113.4,150.262Zm-5.586-2.672c-.143.131-.556.666-1.147,2.732a9.543,9.543,0,0,0,.617,6.995,5.432,5.432,0,0,0,.382-1.189C108.543,151.962,108.287,148.193,107.812,147.59Z" transform="translate(-75.488 -146.706)" fill="#263238"/>
        <path id="Path_20836" data-name="Path 20836" d="M165.968,222.055a7.64,7.64,0,0,1-3.869-1.008.425.425,0,1,1,.429-.733c3.026,1.777,6.937.537,7.742-.757a.737.737,0,0,0,.125-.569,6.9,6.9,0,0,1-4.352-1.243c-2.159-1.35-2.325-1.75-2.311-2.071a.522.522,0,0,1,.289-.444c.845-.428,4.67,1.335,6.264,2.384a2.757,2.757,0,0,1,.528.443,3,3,0,0,0,1.613-.971,2.429,2.429,0,0,0,.5-.952l-.17.02a5.376,5.376,0,0,1-4.166-1.785c-1-.92-1.383-1.555-1.254-2.058a.768.768,0,0,1,.609-.555c1.174-.291,4.07.943,5.254,2.241a2.373,2.373,0,0,1,.544,1,10.755,10.755,0,0,0,3.664-3.624.424.424,0,0,1,.69.494c-1.6,2.239-2.939,3.508-4.281,4.026a3.154,3.154,0,0,1-.737,1.73,3.847,3.847,0,0,1-1.85,1.2,1.562,1.562,0,0,1-.238,1.18C170.276,221.157,168.225,222.055,165.968,222.055Zm-.753-5.883c.285.211.694.489,1.277.854a6.852,6.852,0,0,0,3.054,1.122A21.059,21.059,0,0,0,165.215,216.172Zm2.96-3.6a3.666,3.666,0,0,0,.989,1.176,4.574,4.574,0,0,0,3.5,1.564,2.73,2.73,0,0,0,.271-.041,1.554,1.554,0,0,0-.368-.7A7.307,7.307,0,0,0,168.175,212.568Z" transform="translate(-84.931 -156.494)" fill="#263238"/>
        <path id="Path_20837" data-name="Path 20837" d="M163.432,211.336l-13.217,2.4-12-65.494-25.5,4.632-41.554,73.8,4.462,24.351,53.3-9.682,3.649,19.917,25.5-4.633-3.649-19.916,13.217-2.4ZM96.551,223.485l22.019-38.652,6.144,33.537Z" transform="translate(-71.161 -146.939)" fill="#ea7410"/>
      </g>
      <path id="Path_20838" data-name="Path 20838" d="M288.978,136.368a49.864,49.864,0,0,0-2.712-12.061,39.057,39.057,0,0,0-5.929-10.339,34.269,34.269,0,0,0-10.776-8.793q-6.82-3.725-18-5.184-23.274-3.033-36.289,8.262t-17.133,43.269a118.08,118.08,0,0,0-.828,24.043q.844,11.038,4.052,17.756A37.127,37.127,0,0,0,213.788,208.4q8.032,5.634,22.012,7.457,24.934,3.248,36.957-9.575t15.951-43.345A109.683,109.683,0,0,0,288.978,136.368Z" transform="translate(403.098 45.309)" fill="#ea7410"/>
      <path id="Path_20839" data-name="Path 20839" d="M245.128,208.815c-2.04-.07-4.211-.254-6.453-.546-7.765-1.011-13.773-2.976-17.858-5.843a27.68,27.68,0,0,1-9.324-11.371l-.042-.088c-1.631-3.412-2.7-8.273-3.168-14.444a109.414,109.414,0,0,1,.779-22.141c3.027-23.514,9.281-33.324,13.993-37.414,5.495-4.767,12.911-6.922,22.673-6.587,2,.069,4.118.248,6.295.531,6.266.815,11.223,2.2,14.735,4.12a25.236,25.236,0,0,1,7.9,6.35,29.949,29.949,0,0,1,4.541,7.861,40.875,40.875,0,0,1,2.177,9.8,101.022,101.022,0,0,1-.249,24.363c-2.352,18.269-6.9,31.106-13.5,38.154-4.9,5.229-12.259,7.6-22.49,7.25Z" transform="translate(401.428 43.64)" fill="#263238"/>
      <g id="Group_2396" data-name="Group 2396" transform="translate(620.49 158.202)">
        <path id="Path_20840" data-name="Path 20840" d="M263.7,139.042l.11-3.213-1.972-.645a19.167,19.167,0,0,0-.527-3.226l1.673-1.233-1.136-3.017-2.068.166a19.016,19.016,0,0,0-1.722-2.775l1.071-1.788-2.2-2.35-1.848.947a20.2,20.2,0,0,0-2.651-1.915l.3-2.053-2.933-1.331-1.344,1.575a19.8,19.8,0,0,0-3.183-.746l-.5-2.012-3.221-.11-.636,1.973a19.82,19.82,0,0,0-3.227.526l-1.242-1.663-3.017,1.127.166,2.068a19.781,19.781,0,0,0-2.775,1.73l-1.78-1.07L226.68,122.2l.947,1.857a18.886,18.886,0,0,0-1.907,2.651l-2.052-.308-1.339,2.933,1.583,1.344a19.2,19.2,0,0,0-.746,3.183l-2.02.508-.109,3.213,1.981.645a18.946,18.946,0,0,0,.526,3.226l-1.672,1.233,1.136,3.018,2.068-.167a18.916,18.916,0,0,0,1.722,2.775l-1.071,1.788,2.2,2.35,1.849-.947a19.7,19.7,0,0,0,2.65,1.915l-.308,2.052,2.933,1.332,1.353-1.575a19.779,19.779,0,0,0,3.183.746l.5,2.012,3.222.11.636-1.973a19.827,19.827,0,0,0,3.226-.526l1.233,1.663,3.018-1.127-.159-2.068a20.157,20.157,0,0,0,2.775-1.73l1.78,1.071,2.358-2.194-.946-1.857a18.953,18.953,0,0,0,1.907-2.651l2.052.308,1.339-2.933-1.584-1.344a18.9,18.9,0,0,0,.746-3.183Zm-21.71,10.409a12.753,12.753,0,1,1,13.178-12.305A12.75,12.75,0,0,1,241.992,149.451Z" transform="translate(-221.036 -115.316)" fill="#ea7410"/>
      </g>
      <g id="Group_2397" data-name="Group 2397" transform="translate(647.838 223.809)">
        <path id="Path_20841" data-name="Path 20841" d="M281.986,209.8l.232-2.166-1.3-.531a13.32,13.32,0,0,0-.193-2.2l1.188-.754-.6-2.1-1.41.012a12.568,12.568,0,0,0-1.014-1.96l.8-1.154-1.361-1.694-1.3.541a12.86,12.86,0,0,0-1.689-1.418l.316-1.379-1.909-1.048-1,1.008a12.609,12.609,0,0,0-2.1-.668L270.4,192.9l-2.166-.243-.531,1.3a13.613,13.613,0,0,0-2.2.2l-.753-1.2-2.1.613.012,1.41a13.6,13.6,0,0,0-1.961,1.015l-1.153-.814-1.695,1.361.541,1.3a13.743,13.743,0,0,0-1.417,1.688l-1.37-.305-1.048,1.91,1,.987a13.611,13.611,0,0,0-.668,2.112l-1.388.23-.232,2.166,1.3.54a12.451,12.451,0,0,0,.193,2.191l-1.2.753.613,2.1,1.41,0a13.025,13.025,0,0,0,1.015,1.951l-.813,1.153,1.361,1.7,1.31-.551a12.982,12.982,0,0,0,1.688,1.418l-.315,1.378,1.909,1.048,1-1a13.449,13.449,0,0,0,2.1.657l.24,1.389,2.166.243.532-1.3a13.624,13.624,0,0,0,2.2-.2l.753,1.2,2.086-.614,0-1.409a13.678,13.678,0,0,0,1.961-1.014l1.143.813,1.7-1.361-.551-1.3a13.89,13.89,0,0,0,1.428-1.688l1.37.3,1.048-1.909-1-.987a13.766,13.766,0,0,0,.658-2.1Zm-10.92-.841a3.785,3.785,0,1,1-1.5-5.133A3.793,3.793,0,0,1,271.066,208.958Z" transform="translate(-253.278 -192.662)" fill="#ea7410" opacity="0.3"/>
      </g>
      <path id="Path_20842" data-name="Path 20842" d="M295.375,167.072l-2.529-1.746,0-.006a13.9,13.9,0,0,0-1.017-2.634l.648-2.542-3.668-3.928-2.581.472a13.913,13.913,0,0,0-2.556-1.193l-.007,0L282.1,152.85l-5.371-.184-1.746,2.529-.01,0a13.867,13.867,0,0,0-2.63,1.016l-2.541-.648-3.927,3.668.472,2.576,0,0a13.611,13.611,0,0,0-1.194,2.566l-2.642,1.569-.184,5.37,2.53,1.747a13.474,13.474,0,0,0,1.014,2.646h0l-.645,2.535,3.667,3.927,2.566-.47a13.974,13.974,0,0,0,2.579,1.2h0l1.568,2.64,5.37.184,1.745-2.527a14.026,14.026,0,0,0,2.653-1.017h0l2.529.645,3.927-3.668-.472-2.577a13.607,13.607,0,0,0,1.194-2.566h0l2.644-1.57Zm-16.736,8.164a6.043,6.043,0,1,1,6.246-5.832A6.045,6.045,0,0,1,278.639,175.236Z" transform="translate(393.188 37.217)" fill="#fff"/>
      <path id="Path_20843" data-name="Path 20843" d="M321.55,116.949l.443-1.065h0a5.261,5.261,0,0,0,.887-.581l.984.037,1.154-1.656-.377-.911a5.187,5.187,0,0,0,.237-1.032v0l.847-.785-.355-1.987-1.066-.442,0,0a5.157,5.157,0,0,0-.58-.886l.038-.985L322.1,105.5l-.908.376h0a5.118,5.118,0,0,0-1.037-.237l-.784-.847-1.987.355-.443,1.067a5.058,5.058,0,0,0-.892.58h0l-.981-.037-1.154,1.656.375.905a5.275,5.275,0,0,0-.237,1.042h0l-.846.783.355,1.987,1.065.442a5.273,5.273,0,0,0,.583.894h0l-.037.98,1.656,1.154.909-.377a5.111,5.111,0,0,0,1.036.237h0l.785.847Zm-4.316-5.5a2.269,2.269,0,1,1,2.634,1.835A2.27,2.27,0,0,1,317.234,111.446Z" transform="translate(385.464 44.483)" fill="#ea7410"/>
      <path id="Path_20844" data-name="Path 20844" d="M295.491,111.628l-.647-.546a16.9,16.9,0,0,1,5.1-4.267l.393.752A16.231,16.231,0,0,0,295.491,111.628Z" transform="translate(388.252 44.176)" fill="#ea7410"/>
      <path id="Path_20845" data-name="Path 20845" d="M303.531,106.361l-.335-.78a20.28,20.28,0,0,1,9.957-1.595l-.079.845A19.313,19.313,0,0,0,303.531,106.361Z" transform="translate(386.984 44.619)" fill="#ea7410"/>
      <path id="Path_20846" data-name="Path 20846" d="M301.578,112.665l-.7-.478a14.244,14.244,0,0,1,8.373-5.419l.165.831A13.333,13.333,0,0,0,301.578,112.665Z" transform="translate(387.336 44.183)" fill="#ea7410"/>
      <path id="Path_20847" data-name="Path 20847" d="M232.127,203.739a.424.424,0,0,1-.3-.129l-1.779-1.833a14.991,14.991,0,0,1-2.668-.5L224.6,202.5a.422.422,0,0,1-.405-.034l-4.644-3.079a.427.427,0,0,1-.19-.36l.047-3.022a14.644,14.644,0,0,1-1.5-2.271l-2.379-.923a.424.424,0,0,1-.262-.31l-1.107-5.461a.422.422,0,0,1,.12-.388l1.833-1.778a15.235,15.235,0,0,1,.5-2.672l-1.221-2.768a.425.425,0,0,1,.035-.406l3.078-4.644a.392.392,0,0,1,.36-.19l3.021.047a14.893,14.893,0,0,1,2.272-1.5l.923-2.381a.425.425,0,0,1,.311-.262l5.46-1.108a.432.432,0,0,1,.389.12l1.776,1.831a15.173,15.173,0,0,1,2.674.5l2.768-1.221a.429.429,0,0,1,.405.035l4.644,3.078a.424.424,0,0,1,.189.361l-.046,3.025a14.585,14.585,0,0,1,1.5,2.268l2.381.924a.423.423,0,0,1,.263.31l1.107,5.461a.426.426,0,0,1-.12.389l-1.834,1.779a15.226,15.226,0,0,1-.5,2.666l1.222,2.773a.423.423,0,0,1-.034.405l-3.078,4.644a.444.444,0,0,1-.36.19l-3.022-.046a14.93,14.93,0,0,1-2.27,1.492l-.925,2.385a.429.429,0,0,1-.311.263l-5.461,1.107A.4.4,0,0,1,232.127,203.739Zm-4.781-3.334a.412.412,0,0,1,.12.018,14.2,14.2,0,0,0,2.809.523.424.424,0,0,1,.27.128l1.726,1.78,5.006-1.015.9-2.318a.423.423,0,0,1,.2-.222,14.065,14.065,0,0,0,2.388-1.57.365.365,0,0,1,.275-.1l2.943.044,2.822-4.257-1.191-2.7a.419.419,0,0,1-.019-.289,14.428,14.428,0,0,0,.522-2.809.425.425,0,0,1,.127-.27l1.781-1.727-1.015-5.006-2.313-.9a.419.419,0,0,1-.226-.206,13.8,13.8,0,0,0-1.57-2.379.426.426,0,0,1-.1-.276l.045-2.947-4.257-2.822-2.694,1.188a.435.435,0,0,1-.289.02,14.39,14.39,0,0,0-2.819-.523.422.422,0,0,1-.269-.126l-1.725-1.779-5.005,1.016-.9,2.312a.426.426,0,0,1-.2.223,14.037,14.037,0,0,0-2.389,1.573.391.391,0,0,1-.276.1l-2.943-.046-2.821,4.258,1.189,2.7a.427.427,0,0,1-.008.361,14.748,14.748,0,0,0-.495,2.742.423.423,0,0,1-.127.27l-1.78,1.726,1.014,5.005,2.312.9a.42.42,0,0,1,.232.218,13.9,13.9,0,0,0,1.564,2.367.432.432,0,0,1,.1.277l-.046,2.944,4.258,2.824,2.7-1.192A.429.429,0,0,1,227.346,200.405Zm4.172-2.744a11.3,11.3,0,0,1-9.409-17.542h0a11.3,11.3,0,1,1,9.408,17.542Zm-8.7-17.073a10.455,10.455,0,1,0,14.494-2.943,10.379,10.379,0,0,0-14.494,2.943Z" transform="translate(400.498 34.74)" fill="#fff"/>
      <g id="Group_2401" data-name="Group 2401" transform="translate(698.427 185.618)">
        <path id="Path_20848" data-name="Path 20848" d="M408.69,218.9l-13.312-1.8,8.8-66L378.5,147.637,316.192,205l-3.274,24.539,53.686,7.245-2.678,20.071,25.686,3.467,2.677-20.071,13.313,1.8Zm-67.365-9.091L374.2,179.842l-4.509,33.794Z" transform="translate(-312.918 -147.637)" fill="#ea7410"/>
        <path id="Path_20849" data-name="Path 20849" d="M394.058,260.174a.483.483,0,0,1-.077-.007.424.424,0,0,1-.34-.494L413.427,151.16a.433.433,0,0,1,.493-.342.424.424,0,0,1,.341.494L394.475,259.826A.424.424,0,0,1,394.058,260.174Z" transform="translate(-325.168 -148.119)" fill="#263238"/>
        <g id="Group_2399" data-name="Group 2399" transform="translate(65.269 4.144)">
          <path id="Path_20850" data-name="Path 20850" d="M414.582,153.241a.7.7,0,1,1-.671-.718A.7.7,0,0,1,414.582,153.241Z" transform="translate(-393.406 -152.522)" fill="#263238"/>
          <path id="Path_20851" data-name="Path 20851" d="M411.25,170.542a.7.7,0,1,1-.671-.718A.7.7,0,0,1,411.25,170.542Z" transform="translate(-392.9 -155.148)" fill="#263238"/>
          <path id="Path_20852" data-name="Path 20852" d="M407.917,187.842a.7.7,0,1,1-.671-.718A.694.694,0,0,1,407.917,187.842Z" transform="translate(-392.394 -157.774)" fill="#263238"/>
          <path id="Path_20853" data-name="Path 20853" d="M401.364,205.853a.7.7,0,1,1-.671-.718A.7.7,0,0,1,401.364,205.853Z" transform="translate(-391.4 -160.507)" fill="#263238"/>
          <path id="Path_20854" data-name="Path 20854" d="M401.252,222.444a.7.7,0,1,1-.671-.718A.695.695,0,0,1,401.252,222.444Z" transform="translate(-391.383 -163.025)" fill="#263238"/>
          <path id="Path_20855" data-name="Path 20855" d="M397.92,239.745a.7.7,0,1,1-.671-.718A.7.7,0,0,1,397.92,239.745Z" transform="translate(-390.877 -165.651)" fill="#263238"/>
          <path id="Path_20856" data-name="Path 20856" d="M394.587,257.046a.695.695,0,1,1-.67-.719A.695.695,0,0,1,394.587,257.046Z" transform="translate(-390.371 -168.277)" fill="#263238"/>
          <path id="Path_20857" data-name="Path 20857" d="M391.255,274.346a.7.7,0,1,1-.671-.718A.694.694,0,0,1,391.255,274.346Z" transform="translate(-389.866 -170.902)" fill="#263238"/>
        </g>
        <path id="Path_20858" data-name="Path 20858" d="M400.718,206.221a.424.424,0,0,1-.088-.839l2.106-.452a.424.424,0,1,1,.178.83l-2.107.452A.454.454,0,0,1,400.718,206.221Z" transform="translate(-326.179 -156.331)" fill="#263238"/>
        <g id="Group_2400" data-name="Group 2400" transform="translate(77.933 41.652)">
          <path id="Path_20859" data-name="Path 20859" d="M408.51,197.241a70.661,70.661,0,0,0-2.537,7.94,69.388,69.388,0,0,0-.678,9.69" transform="translate(-404.871 -196.817)" fill="#263238"/>
          <path id="Path_20860" data-name="Path 20860" d="M405.219,215.22h0a.424.424,0,0,1-.422-.427,68.566,68.566,0,0,1,.687-9.777,70.185,70.185,0,0,1,2.556-8,.424.424,0,0,1,.792.3,70.6,70.6,0,0,0-2.518,7.877,69.429,69.429,0,0,0-.668,9.6A.424.424,0,0,1,405.219,215.22Z" transform="translate(-404.795 -196.742)" fill="#263238"/>
        </g>
      </g>
      <path id="Path_20861" data-name="Path 20861" d="M222.452,296c1.178-19-.989-53.546,34.73-48.974,38.286,4.9,27.333,49.669,27.333,49.669Z" transform="translate(399.239 22.958)" fill="#263238"/>
      <circle id="Ellipse_37" data-name="Ellipse 37" cx="15.587" cy="15.587" r="15.587" transform="translate(630.756 276.368)" fill="#fff"/>
      <path id="Path_20862" data-name="Path 20862" d="M251.054,254.621c-7.382-1.261-15.277,4.181-16.054,9.694l29.27,2.691C263.238,260.722,256.912,255.621,251.054,254.621Z" transform="translate(397.334 21.772)" fill="#263238"/>
      <path id="Path_20863" data-name="Path 20863" d="M263.934,271.18c-.21,4.075-2.43,7.273-4.96,7.143s-4.412-3.539-4.2-7.614,2.429-7.273,4.96-7.143S264.143,267.105,263.934,271.18Z" transform="translate(394.336 20.387)" fill="#263238"/>
      <path id="Path_20864" data-name="Path 20864" d="M248.573,286.494a16.434,16.434,0,1,1,16.434-16.435A16.453,16.453,0,0,1,248.573,286.494Zm0-31.173a14.738,14.738,0,1,0,14.738,14.738A14.755,14.755,0,0,0,248.573,255.321Z" transform="translate(397.769 21.895)" fill="#ea7410"/>
      <path id="Path_20865" data-name="Path 20865" d="M290.4,299.931a.493.493,0,0,1-.1-.011.426.426,0,0,1-.314-.512c.028-.115,2.731-11.616-.075-23.244a.424.424,0,1,1,.824-.2c2.857,11.834.105,23.526.077,23.643A.424.424,0,0,1,290.4,299.931Z" transform="translate(389.003 18.554)" fill="#fff" opacity="0.3"/>
      <path id="Path_20866" data-name="Path 20866" d="M286.892,267.429a.425.425,0,0,1-.386-.248,29.962,29.962,0,0,0-4.021-6.495.424.424,0,1,1,.656-.537,30.818,30.818,0,0,1,4.136,6.679.425.425,0,0,1-.385.6Z" transform="translate(390.142 20.928)" fill="#fff" opacity="0.3"/>
      <path id="Path_20867" data-name="Path 20867" d="M127.941,404.037c-.106,0-.21,0-.316,0a4.241,4.241,0,1,1,.232-8.479h.081c2.451,0,8.346-2.977,20.678-22.419a4.243,4.243,0,0,1,6.369-.925,175.529,175.529,0,0,0,31.506,21.61,4.241,4.241,0,0,1-3.838,7.564,180.893,180.893,0,0,1-29.517-19.634C142.8,397.291,135.13,404.037,127.941,404.037Z" transform="translate(414.257 4.055)" fill="#263238"/>
      <path id="Path_20868" data-name="Path 20868" d="M158.2,363.043a2.639,2.639,0,0,1-.363-.025,2.545,2.545,0,0,1-2.159-2.88c.6-4.221-.145-20.04-5.492-32.34a2.546,2.546,0,0,1,.9-3.118c11.619-7.917,36.369-8.865,37.417-8.9a2.545,2.545,0,0,1,.177,5.086c-.23.008-21.867.839-32.986,6.958,4.737,12.247,5.81,27.513,5.021,33.036A2.545,2.545,0,0,1,158.2,363.043Z" transform="translate(410.239 12.462)" fill="#263238"/>
      <path id="Path_20869" data-name="Path 20869" d="M161.163,367.108c-1.693-3.992-9.32-3.539-13.8-.117-2.394,1.828-5.633,7.329-5.973,9.323a3,3,0,0,0,3.412,3.595c2.924-.254,6.939-4.5,6.939-4.5-2.671,2.619.775,4.468,5.918.68C160.513,373.984,163.058,371.578,161.163,367.108Z" transform="translate(411.549 5.103)" fill="#ea7410"/>
      <path id="Path_20870" data-name="Path 20870" d="M336.63,301.4a.439.439,0,0,1-.118-.016.425.425,0,0,1-.29-.525c1.13-3.935,2.364-6.34,3.987-7.677a4.409,4.409,0,0,1,.13-2.764,5.46,5.46,0,0,1,2-2.549,2.168,2.168,0,0,1-.5-2.021,5.237,5.237,0,0,1,1.812-2.677,1.948,1.948,0,0,1-.481-1.279c-.021-2.529,4.672-6.383,9.978-7.107a.416.416,0,0,1,.478.363.424.424,0,0,1-.364.477c-5.036.688-9.259,4.334-9.243,6.26a1.108,1.108,0,0,0,.307.767,10.4,10.4,0,0,1,7.874-1.581c2.6.5,3.662,1.048,3.539,1.838-.231,1.487-5.776,1.795-9.492,1.352a5.21,5.21,0,0,1-1.909-.547,4.583,4.583,0,0,0-1.67,2.316,1.339,1.339,0,0,0,.42,1.388,9.833,9.833,0,0,1,6.715-.5c3.848.849,3.993,1.318,4.078,1.6a.56.56,0,0,1-.137.562c-.811.859-6.706.451-9.668-.274a4.281,4.281,0,0,1-1.02-.383,4.646,4.646,0,0,0-1.924,2.3,3.667,3.667,0,0,0-.191,1.953c.153-.091.308-.174.467-.25,1.755-.832,3.878-.693,6.492.425,1.735.743,2.571,1.4,2.632,2.07a.937.937,0,0,1-.483.884c-1.294.859-5.827.729-8.185-.526a3.316,3.316,0,0,1-1.3-1.261c-1.386,1.266-2.5,3.534-3.525,7.088A.423.423,0,0,1,336.63,301.4Zm4.6-7.915a2.5,2.5,0,0,0,1.035,1.032,11.279,11.279,0,0,0,7.092.682c.289-.117.332-.214.332-.215s-.047-.478-2.122-1.366c-2.377-1.017-4.273-1.16-5.794-.439A4.653,4.653,0,0,0,341.232,293.483Zm2.828-5.571c.074.021.147.041.22.059a27.916,27.916,0,0,0,8.426.63,19.224,19.224,0,0,0-3.084-.863A9.613,9.613,0,0,0,344.06,287.912Zm1.07-4.769a5.4,5.4,0,0,0,1.219.274c4.226.5,7.958-.092,8.516-.618-.144-.131-.713-.494-2.824-.9A9.552,9.552,0,0,0,345.13,283.143Z" transform="translate(381.975 18.685)" fill="#263238"/>
      <path id="Path_20871" data-name="Path 20871" d="M198.021,407.968c.558-.179.372-.718-.253-.718H186.284c-21.868-2.316-37.147.788-27.519,1.52s-.679.578-7.71,3.238,52.3,3.33,57.693,0C213.725,408.936,190.272,410.452,198.021,407.968Z" transform="translate(410.162 -1.292)" fill="#263238"/>
      <path id="Path_20872" data-name="Path 20872" d="M284.848,394.31,184.925,391l-4.147-96.887,118,2.639Z" transform="translate(405.564 15.75)" fill="#ea7410"/>
      <path id="Path_20873" data-name="Path 20873" d="M220.943,392.49a.424.424,0,0,1-.422-.389l-8.011-97.31a.424.424,0,0,1,.846-.07l8.011,97.31a.425.425,0,0,1-.389.457Z" transform="translate(400.748 15.717)" fill="#263238"/>
      <path id="Path_20874" data-name="Path 20874" d="M303.469,394.782l26.857-4.088,8.459-90.09L317.4,297.222Z" transform="translate(386.943 15.278)" fill="#ea7410" opacity="0.8"/>
      <path id="Path_20875" data-name="Path 20875" d="M303.469,394.782l26.857-4.088,8.459-90.09L317.4,297.222Z" transform="translate(386.943 15.278)" fill="#ea7410" opacity="0.2"/>
      <path id="Path_20876" data-name="Path 20876" d="M195.292,374.075l-2.463-57.563a10.407,10.407,0,0,1,10.63-10.849l74.694,1.67a10.407,10.407,0,0,1,10.069,11.875l-8.281,58.011a10.407,10.407,0,0,1-10.648,8.93l-63.948-2.119A10.408,10.408,0,0,1,195.292,374.075Z" transform="translate(403.736 13.998)" fill="#263238"/>
      <path id="Path_20877" data-name="Path 20877" d="M205.168,326.488l11.556.368-.1,2.979-7.235-.23-.07,2.218,6.711.214-.091,2.846-6.711-.214-.087,2.752,7.444.237-.1,3.16-11.766-.375Z" transform="translate(401.929 10.837)" fill="#fff"/>
      <path id="Path_20878" data-name="Path 20878" d="M221.4,340.974l.444-13.955,7.187.228a10.441,10.441,0,0,1,3.045.44,3.259,3.259,0,0,1,1.663,1.325,3.942,3.942,0,0,1-1.389,5.592,5.214,5.214,0,0,1-1.532.5,2.919,2.919,0,0,1,1.773,1.305,5.543,5.543,0,0,1,.577.886l1.959,4.111-4.873-.155-2.169-4.338a3.265,3.265,0,0,0-.746-1.1,1.814,1.814,0,0,0-1.047-.358l-.38-.012-.181,5.664Zm4.6-8.163,1.818.058a6.5,6.5,0,0,0,1.148-.154,1.137,1.137,0,0,0,.713-.416,1.414,1.414,0,0,0-.1-1.852,2.6,2.6,0,0,0-1.6-.413l-1.894-.06Z" transform="translate(399.399 10.756)" fill="#fff"/>
      <path id="Path_20879" data-name="Path 20879" d="M239.277,341.543l.444-13.955,7.187.228a10.435,10.435,0,0,1,3.044.44,3.259,3.259,0,0,1,1.663,1.325,3.941,3.941,0,0,1-1.389,5.592,5.213,5.213,0,0,1-1.532.5,4.344,4.344,0,0,1,1.107.55,4.389,4.389,0,0,1,.666.756,5.542,5.542,0,0,1,.577.886L253,341.98l-4.872-.155-2.17-4.338a3.244,3.244,0,0,0-.746-1.1,1.806,1.806,0,0,0-1.046-.358l-.381-.012-.181,5.664Zm4.6-8.163,1.818.059a6.584,6.584,0,0,0,1.149-.154,1.137,1.137,0,0,0,.713-.416,1.414,1.414,0,0,0-.1-1.852,2.594,2.594,0,0,0-1.6-.413l-1.894-.06Z" transform="translate(396.685 10.67)" fill="#fff"/>
      <path id="Path_20880" data-name="Path 20880" d="M256.315,335.106a6.61,6.61,0,0,1,7.436-7,7.3,7.3,0,0,1,5.31,2.042,7.055,7.055,0,0,1,1.718,5.3,8.6,8.6,0,0,1-.951,3.987,5.88,5.88,0,0,1-2.457,2.361,7.866,7.866,0,0,1-3.907.747,8.933,8.933,0,0,1-3.884-.876,5.884,5.884,0,0,1-2.432-2.46A7.9,7.9,0,0,1,256.315,335.106Zm4.312.156a4.683,4.683,0,0,0,.689,3.062,2.975,2.975,0,0,0,4.288.155,5.166,5.166,0,0,0,.864-3.222,4.315,4.315,0,0,0-.7-2.9,2.721,2.721,0,0,0-2.127-.978,2.62,2.62,0,0,0-2.124.858A4.693,4.693,0,0,0,260.626,335.262Z" transform="translate(394.1 10.591)" fill="#fff"/>
      <path id="Path_20881" data-name="Path 20881" d="M275.907,342.708l.444-13.955,7.187.229a10.436,10.436,0,0,1,3.044.44,3.254,3.254,0,0,1,1.663,1.324,3.942,3.942,0,0,1-1.389,5.592,5.188,5.188,0,0,1-1.532.5,4.327,4.327,0,0,1,1.107.551,4.389,4.389,0,0,1,.666.756,5.39,5.39,0,0,1,.576.886l1.96,4.11-4.873-.154-2.169-4.339a3.265,3.265,0,0,0-.746-1.1,1.806,1.806,0,0,0-1.047-.357l-.38-.013-.181,5.664Zm4.6-8.163,1.818.058a6.472,6.472,0,0,0,1.148-.154,1.141,1.141,0,0,0,.713-.416,1.415,1.415,0,0,0-.1-1.852,2.588,2.588,0,0,0-1.6-.413l-1.894-.06Z" transform="translate(391.126 10.493)" fill="#fff"/>
      <path id="Path_20882" data-name="Path 20882" d="M271.87,370.73a1.111,1.111,0,0,1-.823-.362l-7.261-7.947-7.835,7.159a1.114,1.114,0,0,1-1.573-.07l-7.261-7.947-7.835,7.158a1.114,1.114,0,0,1-1.573-.07l-7.262-7.947-7.835,7.159a1.112,1.112,0,0,1-1.573-.07l-7.262-7.947L205.943,367a1.113,1.113,0,1,1-1.5-1.644l8.656-7.91a1.113,1.113,0,0,1,1.573.07l7.262,7.947,7.834-7.159a1.113,1.113,0,0,1,1.573.07l7.261,7.947,7.835-7.159a1.113,1.113,0,0,1,1.573.07l7.261,7.948,7.835-7.159a1.111,1.111,0,0,1,1.573.07l8.013,8.769a1.113,1.113,0,0,1-.822,1.864Z" transform="translate(402.027 6.182)" fill="#fff"/>
      <path id="Path_20883" data-name="Path 20883" d="M123.953,409.584l-5.308-2.532-4.736-23.044,2.57-2.83Z" transform="translate(415.712 2.536)" fill="#ea7410"/>
      <path id="Path_20884" data-name="Path 20884" d="M124.413,409.584l7.044-4.115-6.039-18.987-8.479-5.3Z" transform="translate(415.252 2.536)" fill="#ea7410" opacity="0.8"/>
      <path id="Path_20885" data-name="Path 20885" d="M124.413,409.584l7.044-4.115-6.039-18.987-8.479-5.3Z" transform="translate(415.252 2.536)" fill="#ea7410" opacity="0.2"/>
      <path id="Path_20886" data-name="Path 20886" d="M261.106,415.653c-.2,0-.4,0-.586-.008a4.241,4.241,0,1,1,.232-8.479c6.534.214,20.363-3.8,28.262-11.469a4.233,4.233,0,0,1,1.735-1.019c13.392-4.019,18.376,4.1,18.582,4.448l-7.3,4.318a1.15,1.15,0,0,0,.1.155c-.081-.112-1.977-2.579-8.017-1.053C284.2,411.6,268.981,415.653,261.106,415.653Z" transform="translate(394.087 0.657)" fill="#263238"/>
      <path id="Path_20887" data-name="Path 20887" d="M258.413,420.982l-15.449-.974-1.219-28.48,20.762.776Z" transform="translate(396.311 0.966)" fill="#ea7410"/>
      <path id="Path_20888" data-name="Path 20888" d="M261.395,421.121l3.611-3.594,2.239-17.759-1.755-7.325Z" transform="translate(393.329 0.827)" fill="#ea7410" opacity="0.8"/>
      <path id="Path_20889" data-name="Path 20889" d="M261.395,421.121l3.611-3.594,2.239-17.759-1.755-7.325Z" transform="translate(393.329 0.827)" fill="#ea7410" opacity="0.2"/>
      <path id="Path_20890" data-name="Path 20890" d="M361.283,399.9a2.537,2.537,0,0,1-1.538-.518c-8.816-6.7-20.735-18.6-25.309-30.076a2.583,2.583,0,0,1-.145-.521c-2.23-13.26-4.361-41.173-4.451-42.356a2.545,2.545,0,1,1,5.075-.384c.022.285,2.173,28.472,4.35,41.625,4.561,11.159,16.928,22.619,23.56,27.658a2.545,2.545,0,0,1-1.542,4.571Z" transform="translate(382.942 11.261)" fill="#263238"/>
      <path id="Path_20891" data-name="Path 20891" d="M379.4,413.754c-1.968,0-4.2-.892-6.629-2.651a2.545,2.545,0,0,1,2.984-4.124c2.1,1.521,3.249,1.685,3.645,1.685a2.545,2.545,0,0,1,0,5.089Z" transform="translate(376.584 -1.306)" fill="#263238"/>
      <path id="Path_20892" data-name="Path 20892" d="M373.783,410.719c2.723-8.088,13.886-6.49,17.73-5.289A40.773,40.773,0,0,1,400.9,409.5c2.082,1.361,2.116,3.635-.66,4.933-3.423,1.6-12.013.181-12.013.181,4.446,1.947-.008,5.066-7.808,2C377.882,415.622,372.822,413.683,373.783,410.719Z" transform="translate(376.29 -0.994)" fill="#ea7410"/>
      <path id="Path_20893" data-name="Path 20893" d="M339.064,328.587c-1.01,6.872-6.7,11.94-11.331,11.259s-4.822-6.818-3.811-13.69,2.841-11.877,7.47-11.2S340.074,321.715,339.064,328.587Z" transform="translate(383.914 12.596)" fill="#263238"/>
      <circle id="Ellipse_38" data-name="Ellipse 38" cx="0.695" cy="0.695" r="0.695" transform="translate(610.327 312.359)" fill="#263238"/>
      <path id="Path_20894" data-name="Path 20894" d="M217.959,303.654a.7.7,0,1,1-.695-.7A.694.694,0,0,1,217.959,303.654Z" transform="translate(400.132 14.408)" fill="#263238"/>
      <path id="Path_20895" data-name="Path 20895" d="M218.876,400.559a.7.7,0,1,1-.695-.7A.7.7,0,0,1,218.876,400.559Z" transform="translate(399.993 -0.299)" fill="#263238"/>
      <path id="Path_20896" data-name="Path 20896" d="M226.39,406.462a.7.7,0,1,1-.7-.7A.7.7,0,0,1,226.39,406.462Z" transform="translate(398.852 -1.195)" fill="#263238"/>
      <g id="Group_2414" data-name="Group 2414" transform="translate(496.692 404.261)">
        <path id="Path_20897" data-name="Path 20897" d="M81.384,414.747a8.183,8.183,0,0,1-6.22-3.35.424.424,0,1,1,.7-.483c1.583,2.286,5.072,3.5,6.62,2.783a1.186,1.186,0,0,0,.4-.288,5.148,5.148,0,0,1-2.99-3.8c-.193-1.075-.345-2.528.542-2.728,1.216-.274,2.808,2.669,3.42,4.9a3.019,3.019,0,0,1,.11,1.139,3.808,3.808,0,0,0,1.516.119,1.637,1.637,0,0,0,1.165-.632,4.955,4.955,0,0,1-1.954-3.553c-.329-2.32-.082-2.724.175-2.922a.571.571,0,0,1,.584-.066c.907.386,2.006,3.676,2.216,5.539a2.621,2.621,0,0,1,0,.588,3.251,3.251,0,0,0,1.144.222,3.7,3.7,0,0,0,2.043-.534,2.927,2.927,0,0,1-.34-.25c-.88-.752-1.235-1.954-1.087-3.674.115-1.33.418-2.056.953-2.285a.966.966,0,0,1,1.025.2,5.86,5.86,0,0,1,1.463,4.713,2.489,2.489,0,0,1-.426.977,15.574,15.574,0,0,0,5.635-.635.424.424,0,1,1,.2.823c-2.3.568-4.773,1.031-6.521.524a4.822,4.822,0,0,1-2.967.986,4.12,4.12,0,0,1-1.39-.261,2.388,2.388,0,0,1-1.8,1.078,4.6,4.6,0,0,1-1.9-.163,1.931,1.931,0,0,1-.859.752A3.491,3.491,0,0,1,81.384,414.747Zm-.734-7.021a3.769,3.769,0,0,0,.072,1.733A4.309,4.309,0,0,0,83.13,412.6a2.573,2.573,0,0,0-.1-.6C82.366,409.579,81.1,407.908,80.65,407.726Zm4.726-.74a11.741,11.741,0,0,0,.15,1.746,4.366,4.366,0,0,0,1.288,2.734A13.39,13.39,0,0,0,85.376,406.986Zm5.336-.737h0s-.319.162-.442,1.579a3.305,3.305,0,0,0,.792,2.955,2.206,2.206,0,0,0,.509.321,1.811,1.811,0,0,0,.461-.872,5.3,5.3,0,0,0-1.014-3.758C90.846,406.285,90.736,406.249,90.712,406.249Z" transform="translate(-75.088 -405.401)" fill="#263238"/>
        <g id="Group_2411" data-name="Group 2411" transform="translate(121.576 7.785)">
          <path id="Path_20898" data-name="Path 20898" d="M228.433,422.551l2.3-3.987-2.3-3.986h-2.461l1.39,3.987-1.39,3.987Z" transform="translate(-219.564 -414.578)" fill="#c95c00"/>
          <path id="Path_20899" data-name="Path 20899" d="M225.278,420.846a2.074,2.074,0,1,1,0-4.148l-3.908-.782-1.037,3.156,1.744,2.663Z" transform="translate(-218.708 -414.781)" fill="#c95c00"/>
          <path id="Path_20900" data-name="Path 20900" d="M225.322,414.578h-4.606l-2.3,3.987,2.3,3.987h4.606l2.3-3.987Zm-2.3,6.065a2.074,2.074,0,1,1,2.07-2.078A2.082,2.082,0,0,1,223.023,420.643Z" transform="translate(-218.417 -414.578)" fill="#ea7410"/>
        </g>
        <g id="Group_2412" data-name="Group 2412" transform="translate(289.068 1.598)">
          <path id="Path_20901" data-name="Path 20901" d="M417.584,413.206l-1.707-2.961,1.707-2.961h1.828l-1.032,2.961,1.032,2.961Z" transform="translate(-415.877 -407.284)" fill="#ea7410"/>
          <path id="Path_20902" data-name="Path 20902" d="M419.9,411.939a1.54,1.54,0,1,0,0-3.081l2.9-.581.77,2.344-1.3,1.977Z" transform="translate(-416.488 -407.435)" fill="#ea7410"/>
          <path id="Path_20903" data-name="Path 20903" d="M419.3,407.284h3.421l1.707,2.96-1.707,2.961H419.3l-1.708-2.961Zm1.707,4.5a1.54,1.54,0,1,0-1.538-1.544A1.546,1.546,0,0,0,421.012,411.788Z" transform="translate(-416.138 -407.284)" fill="#c95c00"/>
        </g>
        <g id="Group_2413" data-name="Group 2413" transform="translate(220.678 5.512)">
          <path id="Path_20904" data-name="Path 20904" d="M342.623,418.249h3.832a1.82,1.82,0,0,0,1.814-1.814h0a1.82,1.82,0,0,0-1.814-1.814h-3.832a1.82,1.82,0,0,0-1.814,1.814h0A1.819,1.819,0,0,0,342.623,418.249Z" transform="translate(-336.094 -412.312)" fill="#263238"/>
          <path id="Path_20905" data-name="Path 20905" d="M335.657,414.44a3.779,3.779,0,1,1,1.7,5.242A3.9,3.9,0,0,1,335.657,414.44Z" transform="translate(-335.25 -411.925)" fill="#ea7410"/>
          <rect id="Rectangle_1609" data-name="Rectangle 1609" width="1.162" height="8.569" transform="matrix(-0.905, -0.426, 0.426, -0.905, 2.517, 8.246)" fill="#263238"/>
        </g>
      </g>
    </g>
    <text id="Whoops_that_page_is_gone." data-name="Whoops, that page is gone." transform="translate(683 520)" fill="#333" font-size="28" font-family="Helvetica"><tspan x="-170.447" y="0">Whoops, that page is gone.</tspan></text>
  </g>
</svg>
